<?xml version="1.0" standalone="no"?>
<!DOCTYPE svg PUBLIC "-//W3C//DTD SVG 20010904//EN"
 "http://www.w3.org/TR/2001/REC-SVG-20010904/DTD/svg10.dtd">
<svg version="1.0" xmlns="http://www.w3.org/2000/svg"
 width="794.000000pt" height="243.000000pt" viewBox="0 0 794.000000 243.000000"
 preserveAspectRatio="xMidYMid meet">

<g transform="translate(0.000000,243.000000) scale(0.100000,-0.100000)"
fill="#000000" stroke="none">
<path d="M1268 1699 c-98 -14 -168 -62 -211 -144 -19 -35 -22 -60 -25 -217
l-4 -178 282 0 283 0 -5 -86 c-4 -76 -7 -88 -31 -112 l-27 -27 -250 -3 -250
-3 0 -80 0 -79 208 0 c234 0 318 10 379 46 97 57 123 124 130 342 l6 162 -282
0 -281 0 0 81 c0 146 7 149 325 149 l236 0 -3 78 -3 77 -210 1 c-115 1 -236
-2 -267 -7z"/>
<path d="M1832 1307 l3 -403 28 -42 c40 -61 92 -84 196 -86 l86 -1 3 77 3 77
-78 3 -78 3 -3 173 -2 172 80 0 80 0 0 80 0 80 -80 0 -79 0 -3 133 -3 132 -78
3 -78 3 3 -404z"/>
<path d="M3700 1240 l0 -470 80 0 80 0 0 470 0 470 -80 0 -80 0 0 -470z"/>
<path d="M4440 1239 l0 -471 428 5 c352 3 435 7 473 20 89 30 157 86 196 161
38 73 43 123 43 444 l0 312 -75 0 -75 0 0 -87 c-1 -49 -3 -194 -6 -323 -5
-272 -12 -298 -87 -341 -37 -21 -57 -24 -171 -27 -145 -5 -135 -12 -99 78 15
39 18 87 21 373 l3 327 -80 0 -81 0 0 -312 c-1 -327 -5 -364 -47 -410 -36 -40
-74 -51 -185 -56 l-108 -5 0 392 0 391 -75 0 -75 0 0 -471z"/>
<path d="M2521 1429 c-73 -12 -130 -39 -180 -85 -86 -77 -109 -160 -111 -399
l-1 -175 128 0 c70 1 160 5 199 9 126 15 231 78 276 165 41 80 48 124 48 314
l0 182 -152 -1 c-84 -1 -177 -5 -207 -10z m205 -256 c-11 -192 -50 -233 -233
-241 l-105 -5 3 119 c3 101 7 124 26 154 39 63 80 77 221 79 l94 1 -6 -107z"/>
<path d="M3153 1426 c-89 -29 -151 -89 -173 -167 -6 -19 -10 -90 -10 -159 0
-104 4 -133 21 -170 39 -86 103 -133 205 -151 78 -13 209 -6 260 16 83 35 144
113 158 203 l6 42 -80 0 c-64 0 -80 -3 -81 -15 -6 -71 -48 -95 -163 -95 -87 0
-142 14 -156 40 -16 29 -24 139 -15 205 5 41 14 65 30 81 22 22 32 24 123 24
129 0 158 -10 173 -61 l12 -39 79 0 c43 0 78 3 78 8 0 4 -6 28 -13 54 -18 69
-65 128 -128 163 -50 27 -63 29 -169 32 -77 2 -129 -2 -157 -11z"/>
<path d="M4191 1380 c-5 -135 -55 -183 -201 -193 l-45 -3 -3 -77 -3 -77 35 0
c68 0 135 -21 165 -51 33 -33 47 -69 56 -151 l6 -58 75 0 74 0 0 53 c0 95 -42
207 -94 256 l-26 25 24 25 c56 61 91 153 95 250 l2 61 -79 0 -79 0 -2 -60z"/>
<path d="M5661 1105 l0 -335 79 0 80 0 0 335 0 335 -80 0 -79 0 0 -335z"/>
<path d="M6123 1430 c-108 -22 -186 -96 -208 -200 -4 -19 -8 -71 -9 -117 l-2
-83 243 0 243 0 0 -23 c0 -13 -12 -34 -26 -48 -25 -24 -29 -24 -240 -27 l-214
-3 -1 -47 c0 -26 -2 -55 -4 -66 -8 -44 -2 -46 174 -46 201 0 291 12 348 45 84
50 119 123 129 271 l7 94 -124 1 c-353 2 -363 3 -367 22 -2 9 10 31 26 47 l30
30 216 0 216 0 0 80 0 80 -197 -1 c-109 -1 -217 -5 -240 -9z"/>
<path d="M6640 1361 l0 -81 219 0 218 0 27 -26 c14 -15 26 -37 26 -50 0 -24 0
-24 -125 -24 l-125 0 0 -80 0 -80 205 0 205 0 0 101 c0 124 -12 167 -63 225
-74 84 -89 88 -354 92 l-233 4 0 -81z"/>
</g>
</svg>
